<?xml version="1.0" standalone="no"?>
<!DOCTYPE svg PUBLIC "-//W3C//DTD SVG 20010904//EN"
 "http://www.w3.org/TR/2001/REC-SVG-20010904/DTD/svg10.dtd">
<svg version="1.0" xmlns="http://www.w3.org/2000/svg"
 width="512.000000pt" height="512.000000pt" viewBox="0 0 512.000000 512.000000"
 preserveAspectRatio="xMidYMid meet">
<metadata>
Created by potrace 1.11, written by Peter Selinger 2001-2013
</metadata>
<g transform="translate(0.000000,512.000000) scale(0.100000,-0.100000)"
fill="#000000" stroke="none">
<path d="M621 5061 c-40 -10 -115 -39 -165 -64 -198 -98 -345 -284 -396 -500
-20 -84 -20 -109 -17 -1949 2 -1760 3 -1866 20 -1923 77 -255 262 -448 512
-533 l80 -27 1880 -3 c2122 -3 1950 -9 2130 78 205 99 353 282 405 503 20 84
20 109 17 1949 -2 1760 -3 1866 -20 1923 -77 256 -256 442 -512 532 l-80 28
-1890 2 c-1795 2 -1894 1 -1964 -16z m3899 -19 c218 -68 381 -203 475 -397 80
-165 74 -17 77 -2090 l3 -1850 -22 -77 c-76 -266 -282 -466 -551 -536 -62 -16
-196 -17 -1937 -17 l-1870 0 -78 23 c-222 64 -386 199 -482 397 -80 165 -74
16 -77 2090 l-3 1850 22 77 c64 225 226 409 436 497 63 25 117 39 217 55 14 2
855 3 1870 2 l1845 -1 75 -23z"/>
<path d="M4140 4514 c-83 -52 -319 -166 -460 -222 -292 -116 -491 -167 -849
-221 l-45 -6 115 -89 c283 -221 557 -468 721 -651 57 -63 111 -115 120 -115
22 0 24 9 43 200 9 85 18 174 21 197 l6 43 47 -39 c277 -232 407 -536 371
-867 -44 -410 -305 -771 -598 -827 -34 -6 -62 -15 -62 -19 0 -30 231 -47 335
-25 306 65 591 305 751 631 29 61 66 156 81 211 25 91 28 116 28 270 0 197
-14 265 -90 421 -116 239 -346 454 -643 600 -55 27 -101 52 -101 55 -1 4 48
89 107 190 157 267 174 299 165 298 -4 0 -33 -16 -63 -35z"/>
<path d="M1708 3983 c-21 -3 -41 -26 -96 -111 -38 -59 -94 -150 -123 -202 -69
-123 -170 -343 -161 -352 4 -4 59 -22 122 -41 102 -31 217 -54 348 -72 l42 -5
0 395 0 395 -52 -1 c-29 -1 -65 -4 -80 -6z"/>
<path d="M1990 3595 c0 -217 3 -395 8 -395 31 1 225 33 275 45 87 22 220 65
230 74 19 18 -149 348 -278 547 -79 121 -83 124 -192 124 l-43 0 0 -395z"/>
<path d="M1375 3896 c-114 -42 -219 -94 -320 -162 -83 -55 -195 -149 -195
-164 0 -21 308 -196 331 -188 6 2 29 49 53 105 50 118 125 260 190 361 25 40
46 74 46 77 0 8 -12 5 -105 -29z"/>
<path d="M2350 3926 c0 -3 18 -32 41 -66 61 -91 162 -282 205 -387 21 -51 43
-93 47 -93 30 0 315 162 331 188 3 5 -27 36 -67 69 -145 121 -307 212 -471
267 -83 28 -86 28 -86 22z"/>
<path d="M680 3379 c-182 -246 -293 -541 -316 -844 l-7 -85 310 0 310 0 6 83
c13 165 64 400 131 607 23 71 30 106 22 109 -36 13 -261 133 -314 169 -35 23
-68 42 -73 42 -5 0 -36 -37 -69 -81z"/>
<path d="M3005 3414 c-38 -25 -124 -73 -190 -106 -66 -33 -122 -62 -124 -64
-2 -2 13 -54 33 -116 67 -212 100 -368 132 -636 l5 -42 307 2 306 3 -3 60
c-11 244 -113 555 -256 776 -50 78 -122 169 -133 169 -4 0 -38 -21 -77 -46z"/>
<path d="M440 3300 c-6 -11 -8 -20 -6 -20 3 0 10 9 16 20 6 11 8 20 6 20 -3 0
-10 -9 -16 -20z"/>
<path d="M370 3168 c-83 -175 -144 -382 -155 -531 -4 -52 -2 -47 10 27 30 184
96 390 175 545 16 34 28 61 25 61 -4 0 -28 -46 -55 -102z"/>
<path d="M1243 3093 c-63 -193 -103 -383 -119 -566 l-6 -77 363 2 364 3 0 295
0 295 -90 12 c-119 17 -265 55 -376 98 -50 19 -94 35 -98 35 -4 0 -21 -44 -38
-97z"/>
<path d="M2446 3153 c-117 -45 -247 -79 -362 -95 l-94 -12 0 -298 0 -298 360
0 360 0 0 48 c0 62 -24 223 -50 346 -30 138 -98 346 -113 345 -7 -1 -52 -17
-101 -36z"/>
<path d="M203 2510 c0 -36 2 -50 4 -32 2 17 2 47 0 65 -2 17 -4 3 -4 -33z"/>
<path d="M364 2213 c24 -314 164 -667 354 -892 l29 -34 90 56 c50 30 140 80
200 110 l109 55 -37 114 c-70 212 -129 497 -129 627 l0 51 -311 0 -312 0 7
-87z"/>
<path d="M1120 2276 c0 -52 32 -266 55 -369 27 -121 91 -334 103 -341 4 -3 50
11 100 30 124 46 261 82 374 97 l93 13 0 294 0 295 -362 3 -363 2 0 -24z"/>
<path d="M1990 2000 l0 -300 36 0 c65 0 236 -40 369 -86 72 -25 138 -47 147
-50 13 -5 22 12 48 93 64 198 120 479 120 597 l0 46 -360 0 -360 0 0 -300z"/>
<path d="M2855 2243 c-22 -220 -67 -429 -132 -625 -19 -60 -34 -110 -32 -112
2 -2 56 -30 119 -61 63 -32 151 -80 194 -108 l79 -51 34 40 c54 61 136 190
188 293 88 177 154 421 168 624 l4 57 -308 0 -308 0 -6 -57z"/>
<path d="M1735 1539 c-147 -21 -405 -88 -405 -105 0 -3 16 -44 36 -92 53 -129
163 -337 244 -461 l71 -110 63 -6 c112 -12 101 -56 101 390 l0 390 -25 1 c-14
1 -52 -2 -85 -7z"/>
<path d="M1990 1155 l0 -395 34 0 c18 0 55 3 81 7 l47 6 73 111 c119 182 285
517 272 550 -9 24 -293 94 -444 110 l-63 7 0 -396z"/>
<path d="M1080 1324 c-109 -58 -220 -131 -220 -145 0 -30 251 -208 373 -264
88 -41 235 -91 243 -83 3 3 -18 41 -46 84 -62 95 -167 303 -201 397 -13 37
-28 67 -34 67 -5 0 -57 -25 -115 -56z"/>
<path d="M2623 1363 c-47 -136 -128 -301 -211 -433 -37 -58 -56 -96 -48 -98
21 -5 186 58 280 106 49 25 122 69 163 99 80 57 173 134 173 143 0 17 -317
200 -345 200 -3 0 -8 -8 -12 -17z"/>
</g>
</svg>
